<?xml version="1.0" encoding="UTF-8" standalone="no"?><!-- Generator: Gravit.io --><svg xmlns="http://www.w3.org/2000/svg" xmlns:xlink="http://www.w3.org/1999/xlink" style="isolation:isolate" viewBox="209.433 1381 200 200" width="200pt" height="200pt"><g style="isolation:isolate"><g><rect x="209.433" y="1381" width="200" height="200" transform="matrix(1,0,0,1,0,0)" fill="none"/><path d=" M 330.173 1566.453 L 330.173 1563.193 L 327.373 1563.193 L 327.373 1561.573 L 330.173 1561.573 L 330.173 1558.313 L 331.773 1558.313 L 331.773 1561.573 L 334.673 1561.573 L 334.673 1563.193 L 331.773 1563.193 L 331.773 1566.453 L 330.173 1566.453 L 330.173 1566.453 Z  M 321.873 1566.453 L 321.873 1563.193 L 319.073 1563.193 L 319.073 1561.573 L 321.873 1561.573 L 321.873 1558.313 L 323.473 1558.313 L 323.473 1561.573 L 326.373 1561.573 L 326.373 1563.193 L 323.473 1563.193 L 323.473 1566.453 L 321.873 1566.453 L 321.873 1566.453 Z  M 313.593 1570.873 L 313.593 1570.873 Q 311.193 1570.873 310.213 1569.443 L 310.213 1569.443 L 310.213 1569.443 Q 309.233 1568.013 309.233 1565.493 L 309.233 1565.493 L 309.233 1559.773 L 309.233 1559.773 Q 309.233 1557.113 310.193 1555.733 L 310.193 1555.733 L 310.193 1555.733 Q 311.153 1554.353 313.593 1554.353 L 313.593 1554.353 L 313.593 1554.353 Q 315.773 1554.353 316.723 1555.533 L 316.723 1555.533 L 316.723 1555.533 Q 317.673 1556.713 317.673 1559.013 L 317.673 1559.013 L 317.673 1560.293 L 315.533 1560.293 L 315.533 1559.153 L 315.533 1559.153 Q 315.533 1558.033 315.433 1557.433 L 315.433 1557.433 L 315.433 1557.433 Q 315.333 1556.833 314.923 1556.473 L 314.923 1556.473 L 314.923 1556.473 Q 314.513 1556.113 313.613 1556.113 L 313.613 1556.113 L 313.613 1556.113 Q 312.693 1556.113 312.243 1556.503 L 312.243 1556.503 L 312.243 1556.503 Q 311.793 1556.893 311.653 1557.583 L 311.653 1557.583 L 311.653 1557.583 Q 311.513 1558.273 311.513 1559.433 L 311.513 1559.433 L 311.513 1565.853 L 311.513 1565.853 Q 311.513 1567.093 311.713 1567.793 L 311.713 1567.793 L 311.713 1567.793 Q 311.913 1568.493 312.363 1568.793 L 312.363 1568.793 L 312.363 1568.793 Q 312.813 1569.093 313.613 1569.093 L 313.613 1569.093 L 313.613 1569.093 Q 314.473 1569.093 314.893 1568.713 L 314.893 1568.713 L 314.893 1568.713 Q 315.313 1568.333 315.423 1567.673 L 315.423 1567.673 L 315.423 1567.673 Q 315.533 1567.013 315.533 1565.873 L 315.533 1565.873 L 315.533 1564.673 L 317.673 1564.673 L 317.673 1565.873 L 317.673 1565.873 Q 317.673 1568.293 316.763 1569.583 L 316.763 1569.583 L 316.763 1569.583 Q 315.853 1570.873 313.593 1570.873 L 313.593 1570.873 L 313.593 1570.873 Z  M 296.893 1570.693 L 301.253 1554.493 L 303.113 1554.493 L 298.733 1570.693 L 296.893 1570.693 L 296.893 1570.693 Z  M 286.753 1570.873 L 286.753 1570.873 Q 284.353 1570.873 283.373 1569.443 L 283.373 1569.443 L 283.373 1569.443 Q 282.393 1568.013 282.393 1565.493 L 282.393 1565.493 L 282.393 1559.773 L 282.393 1559.773 Q 282.393 1557.113 283.353 1555.733 L 283.353 1555.733 L 283.353 1555.733 Q 284.313 1554.353 286.753 1554.353 L 286.753 1554.353 L 286.753 1554.353 Q 288.933 1554.353 289.883 1555.533 L 289.883 1555.533 L 289.883 1555.533 Q 290.833 1556.713 290.833 1559.013 L 290.833 1559.013 L 290.833 1560.293 L 288.693 1560.293 L 288.693 1559.153 L 288.693 1559.153 Q 288.693 1558.033 288.593 1557.433 L 288.593 1557.433 L 288.593 1557.433 Q 288.493 1556.833 288.083 1556.473 L 288.083 1556.473 L 288.083 1556.473 Q 287.673 1556.113 286.773 1556.113 L 286.773 1556.113 L 286.773 1556.113 Q 285.853 1556.113 285.403 1556.503 L 285.403 1556.503 L 285.403 1556.503 Q 284.953 1556.893 284.813 1557.583 L 284.813 1557.583 L 284.813 1557.583 Q 284.673 1558.273 284.673 1559.433 L 284.673 1559.433 L 284.673 1565.853 L 284.673 1565.853 Q 284.673 1567.093 284.873 1567.793 L 284.873 1567.793 L 284.873 1567.793 Q 285.073 1568.493 285.523 1568.793 L 285.523 1568.793 L 285.523 1568.793 Q 285.973 1569.093 286.773 1569.093 L 286.773 1569.093 L 286.773 1569.093 Q 287.633 1569.093 288.053 1568.713 L 288.053 1568.713 L 288.053 1568.713 Q 288.473 1568.333 288.583 1567.673 L 288.583 1567.673 L 288.583 1567.673 Q 288.693 1567.013 288.693 1565.873 L 288.693 1565.873 L 288.693 1564.673 L 290.833 1564.673 L 290.833 1565.873 L 290.833 1565.873 Q 290.833 1568.293 289.923 1569.583 L 289.923 1569.583 L 289.923 1569.583 Q 289.013 1570.873 286.753 1570.873 L 286.753 1570.873 L 286.753 1570.873 Z " fill="rgb(255,255,255)"/><g><path d=" M 376.27 1429.267 C 376.269 1426.745 375.729 1424.516 374.638 1422.603 C 373.567 1420.722 371.962 1419.146 369.81 1417.899 C 352.042 1407.654 334.258 1397.441 316.496 1387.186 C 311.707 1384.421 307.065 1384.522 302.312 1387.326 C 295.24 1391.497 259.833 1411.782 249.282 1417.893 C 244.937 1420.409 242.822 1424.258 242.821 1429.262 C 242.814 1449.865 242.821 1470.467 242.814 1491.071 C 242.816 1493.538 243.332 1495.723 244.375 1497.607 C 245.447 1499.545 247.074 1501.165 249.276 1502.439 C 259.827 1508.551 295.239 1528.834 302.309 1533.006 C 307.065 1535.812 311.707 1535.912 316.497 1533.147 C 334.26 1522.891 352.045 1512.678 369.815 1502.433 C 372.017 1501.159 373.645 1499.538 374.717 1497.602 C 375.758 1495.718 376.275 1493.532 376.276 1491.065 C 376.276 1491.065 376.276 1449.87 376.27 1429.267" fill="rgb(92,141,188)"/><path d=" M 309.75 1459.966 L 244.375 1497.607 C 245.447 1499.545 247.074 1501.165 249.276 1502.439 C 259.827 1508.551 295.239 1528.834 302.309 1533.006 C 307.065 1535.812 311.707 1535.912 316.497 1533.147 C 334.26 1522.891 352.045 1512.678 369.815 1502.433 C 372.017 1501.159 373.645 1499.538 374.717 1497.602 L 309.75 1459.966" fill="rgb(26,70,116)"/><path d=" M 290.386 1471.115 C 294.191 1477.757 301.342 1482.236 309.545 1482.236 C 317.8 1482.236 324.992 1477.7 328.777 1470.987 L 309.75 1459.966 L 290.386 1471.115" fill="rgb(26,70,116)"/><path d=" M 376.27 1429.267 C 376.269 1426.745 375.729 1424.516 374.638 1422.603 L 309.75 1459.966 L 374.717 1497.602 C 375.758 1495.718 376.275 1493.532 376.276 1491.065 C 376.276 1491.065 376.276 1449.87 376.27 1429.267" fill="rgb(27,89,142)"/><path d=" M 372.697 1462.656 L 367.621 1462.656 L 367.621 1467.734 L 362.543 1467.734 L 362.543 1462.656 L 357.467 1462.656 L 357.467 1457.58 L 362.543 1457.58 L 362.543 1452.503 L 367.621 1452.503 L 367.621 1457.58 L 372.697 1457.58 L 372.697 1462.656 Z  M 354.173 1462.656 L 349.097 1462.656 L 349.097 1467.734 L 344.02 1467.734 L 344.02 1462.656 L 338.943 1462.656 L 338.943 1457.58 L 344.02 1457.58 L 344.02 1452.503 L 349.097 1452.503 L 349.097 1457.58 L 354.173 1457.58 L 354.173 1462.656 Z " fill="rgb(255,255,255)"/><path d=" M 328.777 1470.987 C 324.992 1477.7 317.8 1482.236 309.545 1482.236 C 301.342 1482.236 294.191 1477.757 290.386 1471.115 C 288.475 1467.783 287.472 1464.008 287.476 1460.166 C 287.476 1447.978 297.357 1438.097 309.545 1438.097 C 317.696 1438.097 324.81 1442.52 328.633 1449.094 L 347.923 1437.986 C 340.256 1424.75 325.941 1415.846 309.545 1415.846 C 285.067 1415.846 265.225 1435.689 265.225 1460.166 C 265.225 1468.196 267.361 1475.727 271.095 1482.222 C 278.743 1495.528 293.098 1504.487 309.545 1504.487 C 326.023 1504.487 340.401 1495.492 348.038 1482.147 L 328.777 1470.987 Z " fill="rgb(255,255,255)"/></g></g></g></svg>