<?xml version="1.0" encoding="UTF-8" standalone="no"?><!-- Generator: Gravit.io --><svg xmlns="http://www.w3.org/2000/svg" xmlns:xlink="http://www.w3.org/1999/xlink" style="isolation:isolate" viewBox="1030.567 1148 200 200" width="200pt" height="200pt"><g style="isolation:isolate"><g><rect x="1030.567" y="1148" width="200" height="200" transform="matrix(1,0,0,1,0,0)" fill="none"/><rect x="1055.567" y="1160.167" width="150" height="150" transform="matrix(1,0,0,1,0,0)" fill="rgb(149,60,44)"/><path d=" M 1114.207 1338.073 L 1114.207 1336.453 L 1114.207 1336.453 Q 1115.227 1336.453 1115.717 1336.263 L 1115.717 1336.263 L 1115.717 1336.263 Q 1116.207 1336.073 1116.387 1335.563 L 1116.387 1335.563 L 1116.387 1335.563 Q 1116.567 1335.053 1116.567 1333.993 L 1116.567 1333.993 L 1116.567 1321.493 L 1118.807 1321.493 L 1118.807 1334.033 L 1118.807 1334.033 Q 1118.807 1335.493 1118.507 1336.363 L 1118.507 1336.363 L 1118.507 1336.363 Q 1118.207 1337.233 1117.437 1337.653 L 1117.437 1337.653 L 1117.437 1337.653 Q 1116.667 1338.073 1115.287 1338.073 L 1115.287 1338.073 L 1114.207 1338.073 L 1114.207 1338.073 Z  M 1123.247 1337.853 L 1123.247 1337.853 Q 1122.587 1337.853 1122.057 1337.473 L 1122.057 1337.473 L 1122.057 1337.473 Q 1121.527 1337.093 1121.227 1336.473 L 1121.227 1336.473 L 1121.227 1336.473 Q 1120.927 1335.853 1120.927 1335.173 L 1120.927 1335.173 L 1120.927 1335.173 Q 1120.927 1333.813 1121.507 1332.963 L 1121.507 1332.963 L 1121.507 1332.963 Q 1122.087 1332.113 1122.987 1331.613 L 1122.987 1331.613 L 1122.987 1331.613 Q 1123.887 1331.113 1125.487 1330.473 L 1125.487 1330.473 L 1125.487 1329.653 L 1125.487 1329.653 Q 1125.487 1328.513 1125.257 1328.043 L 1125.257 1328.043 L 1125.257 1328.043 Q 1125.027 1327.573 1124.327 1327.573 L 1124.327 1327.573 L 1124.327 1327.573 Q 1123.107 1327.573 1123.107 1329.213 L 1123.107 1329.213 L 1123.107 1329.793 L 1120.987 1329.713 L 1120.987 1329.713 Q 1121.027 1327.793 1121.867 1326.883 L 1121.867 1326.883 L 1121.867 1326.883 Q 1122.707 1325.973 1124.467 1325.973 L 1124.467 1325.973 L 1124.467 1325.973 Q 1126.127 1325.973 1126.877 1326.883 L 1126.877 1326.883 L 1126.877 1326.883 Q 1127.627 1327.793 1127.627 1329.633 L 1127.627 1329.633 L 1127.627 1334.913 L 1127.627 1334.913 Q 1127.627 1336.213 1127.827 1337.693 L 1127.827 1337.693 L 1125.867 1337.693 L 1125.867 1337.693 Q 1125.647 1336.553 1125.587 1335.993 L 1125.587 1335.993 L 1125.587 1335.993 Q 1125.347 1336.773 1124.757 1337.313 L 1124.757 1337.313 L 1124.757 1337.313 Q 1124.167 1337.853 1123.247 1337.853 L 1123.247 1337.853 L 1123.247 1337.853 Z  M 1124.087 1336.013 L 1124.087 1336.013 Q 1124.507 1336.013 1124.907 1335.683 L 1124.907 1335.683 L 1124.907 1335.683 Q 1125.307 1335.353 1125.487 1335.053 L 1125.487 1335.053 L 1125.487 1331.773 L 1125.487 1331.773 Q 1124.627 1332.253 1124.157 1332.603 L 1124.157 1332.603 L 1124.157 1332.603 Q 1123.687 1332.953 1123.377 1333.413 L 1123.377 1333.413 L 1123.377 1333.413 Q 1123.067 1333.873 1123.067 1334.513 L 1123.067 1334.513 L 1123.067 1334.513 Q 1123.067 1335.233 1123.327 1335.623 L 1123.327 1335.623 L 1123.327 1335.623 Q 1123.587 1336.013 1124.087 1336.013 L 1124.087 1336.013 L 1124.087 1336.013 Z  M 1131.187 1337.693 L 1128.907 1326.133 L 1131.067 1326.133 L 1132.487 1335.433 L 1133.927 1326.133 L 1136.007 1326.133 L 1133.807 1337.693 L 1131.187 1337.693 L 1131.187 1337.693 Z  M 1139.467 1337.853 L 1139.467 1337.853 Q 1138.807 1337.853 1138.277 1337.473 L 1138.277 1337.473 L 1138.277 1337.473 Q 1137.747 1337.093 1137.447 1336.473 L 1137.447 1336.473 L 1137.447 1336.473 Q 1137.147 1335.853 1137.147 1335.173 L 1137.147 1335.173 L 1137.147 1335.173 Q 1137.147 1333.813 1137.727 1332.963 L 1137.727 1332.963 L 1137.727 1332.963 Q 1138.307 1332.113 1139.207 1331.613 L 1139.207 1331.613 L 1139.207 1331.613 Q 1140.107 1331.113 1141.707 1330.473 L 1141.707 1330.473 L 1141.707 1329.653 L 1141.707 1329.653 Q 1141.707 1328.513 1141.477 1328.043 L 1141.477 1328.043 L 1141.477 1328.043 Q 1141.247 1327.573 1140.547 1327.573 L 1140.547 1327.573 L 1140.547 1327.573 Q 1139.327 1327.573 1139.327 1329.213 L 1139.327 1329.213 L 1139.327 1329.793 L 1137.207 1329.713 L 1137.207 1329.713 Q 1137.247 1327.793 1138.087 1326.883 L 1138.087 1326.883 L 1138.087 1326.883 Q 1138.927 1325.973 1140.687 1325.973 L 1140.687 1325.973 L 1140.687 1325.973 Q 1142.347 1325.973 1143.097 1326.883 L 1143.097 1326.883 L 1143.097 1326.883 Q 1143.847 1327.793 1143.847 1329.633 L 1143.847 1329.633 L 1143.847 1334.913 L 1143.847 1334.913 Q 1143.847 1336.213 1144.047 1337.693 L 1144.047 1337.693 L 1142.087 1337.693 L 1142.087 1337.693 Q 1141.867 1336.553 1141.807 1335.993 L 1141.807 1335.993 L 1141.807 1335.993 Q 1141.567 1336.773 1140.977 1337.313 L 1140.977 1337.313 L 1140.977 1337.313 Q 1140.387 1337.853 1139.467 1337.853 L 1139.467 1337.853 L 1139.467 1337.853 Z  M 1140.307 1336.013 L 1140.307 1336.013 Q 1140.727 1336.013 1141.127 1335.683 L 1141.127 1335.683 L 1141.127 1335.683 Q 1141.527 1335.353 1141.707 1335.053 L 1141.707 1335.053 L 1141.707 1331.773 L 1141.707 1331.773 Q 1140.847 1332.253 1140.377 1332.603 L 1140.377 1332.603 L 1140.377 1332.603 Q 1139.907 1332.953 1139.597 1333.413 L 1139.597 1333.413 L 1139.597 1333.413 Q 1139.287 1333.873 1139.287 1334.513 L 1139.287 1334.513 L 1139.287 1334.513 Q 1139.287 1335.233 1139.547 1335.623 L 1139.547 1335.623 L 1139.547 1335.623 Q 1139.807 1336.013 1140.307 1336.013 L 1140.307 1336.013 L 1140.307 1336.013 Z " fill="rgb(255,255,255)"/><g><path d=" M 1055 1160 L 1205 1160 L 1205 1310 L 1055 1310 L 1055 1160 Z " fill-rule="evenodd" fill="rgb(255,255,255)"/><path d=" M 1117.544 1239.164 C 1117.544 1239.164 1113.962 1241.249 1120.097 1241.953 C 1127.532 1242.802 1131.329 1242.68 1139.52 1241.131 C 1139.52 1241.131 1141.676 1242.481 1144.686 1243.649 C 1126.32 1251.519 1103.121 1243.194 1117.544 1239.164 Z  M 1115.299 1228.894 C 1115.299 1228.894 1111.28 1231.869 1117.421 1232.504 C 1125.363 1233.325 1131.632 1233.391 1142.487 1231.303 C 1142.487 1231.303 1143.986 1232.824 1146.344 1233.655 C 1124.142 1240.149 1099.414 1234.167 1115.299 1228.894 Z " fill-rule="evenodd" fill="rgb(49,116,185)"/><path d=" M 1134.217 1211.472 C 1138.744 1216.683 1133.03 1221.37 1133.03 1221.37 C 1133.03 1221.37 1144.521 1215.44 1139.243 1208.01 C 1134.316 1201.085 1130.536 1197.645 1150.995 1185.781 C 1150.995 1185.78 1118.88 1193.798 1134.217 1211.472 Z " fill-rule="evenodd" fill="rgb(202,49,50)"/><path d=" M 1158.507 1246.761 C 1158.507 1246.761 1161.159 1248.947 1155.585 1250.638 C 1144.987 1253.848 1111.467 1254.817 1102.156 1250.766 C 1098.811 1249.309 1105.086 1247.29 1107.061 1246.863 C 1109.12 1246.418 1110.295 1246.499 1110.295 1246.499 C 1106.573 1243.878 1086.236 1251.647 1099.967 1253.876 C 1137.407 1259.946 1168.217 1251.143 1158.507 1246.761 Z  M 1119.268 1218.253 C 1119.268 1218.253 1102.22 1222.303 1113.232 1223.775 C 1117.883 1224.397 1127.148 1224.254 1135.785 1223.53 C 1142.842 1222.937 1149.925 1221.67 1149.925 1221.67 C 1149.925 1221.67 1147.438 1222.737 1145.637 1223.965 C 1128.321 1228.52 1094.877 1226.399 1104.506 1221.743 C 1112.647 1217.804 1119.268 1218.253 1119.268 1218.253 L 1119.268 1218.253 Z  M 1149.854 1235.347 C 1167.454 1226.203 1159.317 1217.415 1153.635 1218.599 C 1152.246 1218.889 1151.623 1219.14 1151.623 1219.14 C 1151.623 1219.14 1152.141 1218.329 1153.126 1217.98 C 1164.364 1214.031 1173.005 1229.631 1149.503 1235.809 C 1149.502 1235.809 1149.773 1235.565 1149.854 1235.347 L 1149.854 1235.347 Z " fill-rule="evenodd" fill="rgb(49,116,185)"/><path d=" M 1139.243 1166.618 C 1139.243 1166.618 1148.989 1176.369 1129.998 1191.359 C 1114.768 1203.389 1126.525 1210.245 1129.993 1218.082 C 1121.101 1210.061 1114.579 1202.999 1118.954 1196.428 C 1125.378 1186.783 1143.175 1182.105 1139.243 1166.618 Z " fill-rule="evenodd" fill="rgb(202,49,50)"/><path d=" M 1121 1260.132 C 1137.891 1261.212 1163.835 1259.532 1164.45 1251.538 C 1164.45 1251.538 1163.269 1254.568 1150.489 1256.972 C 1136.07 1259.686 1118.283 1259.37 1107.737 1257.63 C 1107.737 1257.63 1109.898 1259.418 1121 1260.132 L 1121 1260.132 Z " fill-rule="evenodd" fill="rgb(49,116,185)"/><path d=" M 1163.67 1274.468 L 1163.156 1274.468 L 1163.156 1274.18 L 1164.542 1274.18 L 1164.542 1274.468 L 1164.029 1274.468 L 1164.029 1275.906 L 1163.67 1275.906 L 1163.67 1274.468 Z  M 1166.435 1274.54 L 1166.429 1274.54 L 1165.919 1275.905 L 1165.684 1275.905 L 1165.177 1274.54 L 1165.171 1274.54 L 1165.171 1275.905 L 1164.83 1275.905 L 1164.83 1274.179 L 1165.33 1274.179 L 1165.8 1275.4 L 1166.27 1274.179 L 1166.766 1274.179 L 1166.766 1275.905 L 1166.436 1275.905 L 1166.436 1274.54 L 1166.435 1274.54 L 1166.435 1274.54 Z  M 1118.231 1290.674 C 1116.639 1292.054 1114.955 1292.831 1113.443 1292.831 C 1111.289 1292.831 1110.12 1291.537 1110.12 1289.466 C 1110.12 1287.224 1111.371 1285.584 1116.379 1285.584 L 1118.231 1285.584 L 1118.231 1290.674 L 1118.231 1290.674 L 1118.231 1290.674 Z  M 1122.628 1295.634 L 1122.628 1280.279 C 1122.628 1276.354 1120.39 1273.765 1114.995 1273.765 C 1111.847 1273.765 1109.088 1274.542 1106.844 1275.533 L 1107.49 1278.252 C 1109.257 1277.603 1111.542 1277.002 1113.785 1277.002 C 1116.893 1277.002 1118.231 1278.252 1118.231 1280.841 L 1118.231 1282.783 L 1116.677 1282.783 C 1109.127 1282.783 1105.721 1285.712 1105.721 1290.116 C 1105.721 1293.91 1107.966 1296.067 1112.192 1296.067 C 1114.909 1296.067 1116.938 1294.946 1118.833 1293.305 L 1119.178 1295.634 L 1122.628 1295.634 L 1122.628 1295.634 Z  M 1137.302 1295.634 L 1131.82 1295.634 L 1125.219 1274.155 L 1130.008 1274.155 L 1134.105 1287.354 L 1135.017 1291.32 C 1137.084 1285.584 1138.551 1279.76 1139.285 1274.155 L 1143.941 1274.155 C 1142.695 1281.227 1140.449 1288.992 1137.302 1295.634 L 1137.302 1295.634 Z  M 1158.342 1290.674 C 1156.745 1292.054 1155.061 1292.831 1153.552 1292.831 C 1151.398 1292.831 1150.23 1291.537 1150.23 1289.466 C 1150.23 1287.224 1151.483 1285.584 1156.488 1285.584 L 1158.342 1285.584 L 1158.342 1290.674 L 1158.342 1290.674 Z  M 1162.741 1295.634 L 1162.741 1280.279 C 1162.741 1276.354 1160.496 1273.765 1155.106 1273.765 C 1151.955 1273.765 1149.196 1274.542 1146.953 1275.533 L 1147.599 1278.252 C 1149.366 1277.603 1151.655 1277.002 1153.899 1277.002 C 1157.002 1277.002 1158.342 1278.252 1158.342 1280.841 L 1158.342 1282.783 L 1156.788 1282.783 C 1149.238 1282.783 1145.833 1285.712 1145.833 1290.116 C 1145.833 1293.91 1148.073 1296.067 1152.3 1296.067 C 1155.019 1296.067 1157.046 1294.946 1158.945 1293.305 L 1159.292 1295.634 L 1162.741 1295.634 L 1162.741 1295.634 Z  M 1100.9 1299.284 C 1099.647 1301.115 1097.62 1302.564 1095.405 1303.382 L 1093.234 1300.825 C 1094.922 1299.959 1096.368 1298.561 1097.041 1297.26 C 1097.62 1296.1 1097.862 1294.609 1097.862 1291.04 L 1097.862 1266.516 L 1102.535 1266.516 L 1102.535 1290.702 C 1102.535 1295.475 1102.154 1297.404 1100.9 1299.284 L 1100.9 1299.284 Z " fill-rule="evenodd" fill="rgb(202,49,50)"/></g></g></g></svg>